<svg xmlns="http://www.w3.org/2000/svg" xmlns:xlink="http://www.w3.org/1999/xlink" viewBox="0 0 37.81 28.36"><defs><style>.cls-1{fill:url(#Безымянный_градиент_5);}.cls-2{fill:url(#Безымянный_градиент_5-2);}.cls-3{fill:url(#Безымянный_градиент_5-3);}.cls-4{fill:url(#Безымянный_градиент_5-4);}.cls-5{fill:url(#Безымянный_градиент_5-5);}.cls-6{fill:url(#Безымянный_градиент_5-6);}.cls-7{fill:url(#Безымянный_градиент_5-7);}.cls-8{fill:url(#Безымянный_градиент_5-8);}.cls-9{fill:url(#Безымянный_градиент_5-9);}.cls-10{fill:url(#Безымянный_градиент_5-10);}.cls-11{fill:url(#Безымянный_градиент_5-11);}.cls-12{fill:url(#Безымянный_градиент_5-12);}.cls-13{fill:url(#Безымянный_градиент_5-13);}.cls-14{fill:url(#Безымянный_градиент_5-14);}.cls-15{fill:url(#Безымянный_градиент_5-15);}.cls-16{fill:url(#Безымянный_градиент_5-16);}.cls-17{fill:url(#Безымянный_градиент_5-17);}.cls-18{fill:url(#Безымянный_градиент_5-18);}.cls-19{fill:url(#Безымянный_градиент_17);}</style><linearGradient id="Безымянный_градиент_5" x1="25.92" y1="9.73" x2="27.53" y2="9.73" gradientUnits="userSpaceOnUse"><stop offset="0" stop-color="#0098ff"/><stop offset="1" stop-color="#1cadff"/></linearGradient><linearGradient id="Безымянный_градиент_5-2" x1="24.75" y1="8.42" x2="26.37" y2="8.42" xlink:href="#Безымянный_градиент_5"/><linearGradient id="Безымянный_градиент_5-3" x1="20.65" y1="8.42" x2="22.27" y2="8.42" xlink:href="#Безымянный_градиент_5"/><linearGradient id="Безымянный_градиент_5-4" x1="19.9" y1="10.75" x2="27.12" y2="10.75" xlink:href="#Безымянный_градиент_5"/><linearGradient id="Безымянный_градиент_5-5" x1="27.1" y1="11.04" x2="28.71" y2="11.04" xlink:href="#Безымянный_градиент_5"/><linearGradient id="Безымянный_градиент_5-6" x1="19.26" y1="16.75" x2="27.76" y2="16.75" xlink:href="#Безымянный_градиент_5"/><linearGradient id="Безымянный_градиент_5-7" x1="27.65" y1="15.6" x2="29.48" y2="15.6" xlink:href="#Безымянный_градиент_5"/><linearGradient id="Безымянный_градиент_5-8" x1="19.49" y1="9.73" x2="21.1" y2="9.73" xlink:href="#Безымянный_градиент_5"/><linearGradient id="Безымянный_градиент_5-9" x1="18.31" y1="11.04" x2="19.92" y2="11.04" xlink:href="#Безымянный_градиент_5"/><linearGradient id="Безымянный_градиент_5-10" x1="24.91" y1="20.1" x2="26.7" y2="20.1" xlink:href="#Безымянный_градиент_5"/><linearGradient id="Безымянный_градиент_5-11" x1="25.82" y1="18.6" x2="27.61" y2="18.6" xlink:href="#Безымянный_градиент_5"/><linearGradient id="Безымянный_градиент_5-12" x1="26.73" y1="17.1" x2="28.54" y2="17.1" xlink:href="#Безымянный_градиент_5"/><linearGradient id="Безымянный_градиент_5-13" x1="17.54" y1="15.6" x2="19.36" y2="15.6" xlink:href="#Безымянный_градиент_5"/><linearGradient id="Безымянный_градиент_5-14" x1="18.48" y1="17.1" x2="20.28" y2="17.1" xlink:href="#Безымянный_градиент_5"/><linearGradient id="Безымянный_градиент_5-15" x1="19.41" y1="18.6" x2="21.2" y2="18.6" xlink:href="#Безымянный_градиент_5"/><linearGradient id="Безымянный_градиент_5-16" x1="20.32" y1="20.1" x2="22.11" y2="20.1" xlink:href="#Безымянный_градиент_5"/><linearGradient id="Безымянный_градиент_5-17" x1="22.14" y1="12.65" x2="23.2" y2="12.65" xlink:href="#Безымянный_градиент_5"/><linearGradient id="Безымянный_градиент_5-18" x1="23.82" y1="12.65" x2="24.88" y2="12.65" xlink:href="#Безымянный_градиент_5"/><linearGradient id="Безымянный_градиент_17" y1="14.18" x2="37.81" y2="14.18" gradientUnits="userSpaceOnUse"><stop offset="0" stop-color="#0080ff"/><stop offset="1" stop-color="#1cc4ff"/></linearGradient></defs><title>Ресурс 105</title><g id="Слой_2" data-name="Слой 2"><g id="Слой_1-2" data-name="Слой 1"><polygon class="cls-1" points="26.33 9.78 25.92 10.36 26.36 10.84 26.85 10.15 26.85 10.15 27.4 10.07 27.53 8.61 26.23 9.23 26.33 9.78"/><polygon class="cls-2" points="24.75 9.05 25.19 9.54 25.68 8.84 25.68 8.84 26.23 8.76 26.37 7.3 25.06 7.92 25.17 8.47 24.75 9.05"/><polygon class="cls-3" points="21.34 8.84 21.34 8.84 21.83 9.54 22.27 9.05 21.85 8.47 21.96 7.92 20.65 7.3 20.79 8.76 21.34 8.84"/><polygon class="cls-4" points="21.44 12.2 23.51 11.05 25.58 12.2 27.12 12.77 23.51 8.74 19.9 12.77 21.44 12.2"/><polygon class="cls-5" points="27.51 11.09 27.1 11.67 27.53 12.15 28.02 11.46 28.02 11.46 28.57 11.38 28.71 9.93 27.4 10.54 27.51 11.09"/><polygon class="cls-6" points="25.5 12.85 23.51 14.39 21.52 12.85 19.26 13.68 23.51 20.66 27.76 13.68 25.5 12.85"/><polygon class="cls-7" points="28.54 15.17 27.99 14.62 27.65 15.18 28.1 15.63 28.09 16.19 29.48 16.57 29.1 15.16 28.54 15.17 28.54 15.17"/><polygon class="cls-8" points="20.17 10.15 20.17 10.15 20.66 10.84 21.09 10.36 20.69 9.78 20.79 9.23 19.49 8.61 19.62 10.07 20.17 10.15"/><polygon class="cls-9" points="19 11.46 19 11.46 19.48 12.15 19.92 11.67 19.51 11.09 19.62 10.54 18.31 9.93 18.44 11.38 19 11.46"/><polygon class="cls-10" points="25.77 19.66 25.77 19.66 25.25 19.14 24.91 19.7 25.32 20.11 25.31 20.68 26.7 21.06 26.33 19.65 25.77 19.66"/><polygon class="cls-11" points="26.68 18.16 26.68 18.16 26.16 17.64 25.82 18.2 26.23 18.61 26.22 19.18 27.61 19.56 27.24 18.15 26.68 18.16"/><polygon class="cls-12" points="27.61 16.67 27.61 16.67 27.07 16.14 26.73 16.7 27.16 17.12 27.15 17.69 28.54 18.07 28.16 16.66 27.61 16.67"/><polygon class="cls-13" points="18.92 15.63 19.36 15.18 19.03 14.62 18.48 15.17 18.47 15.17 17.92 15.16 17.54 16.57 18.93 16.19 18.92 15.63"/><polygon class="cls-14" points="19.86 17.12 20.29 16.7 19.95 16.14 19.41 16.67 19.41 16.67 18.85 16.66 18.48 18.07 19.87 17.69 19.86 17.12"/><polygon class="cls-15" points="20.79 18.61 21.2 18.2 20.86 17.64 20.34 18.16 20.34 18.16 19.78 18.15 19.41 19.56 20.8 19.18 20.79 18.61"/><polygon class="cls-16" points="22.11 19.7 21.77 19.14 21.25 19.66 21.25 19.66 20.69 19.65 20.32 21.06 21.71 20.68 21.69 20.11 22.11 19.7"/><polygon class="cls-17" points="23.2 13.35 22.14 12.53 23.2 11.95 23.2 13.35"/><polygon class="cls-18" points="23.82 11.95 24.88 12.53 23.82 13.35 23.82 11.95"/><path class="cls-19" d="M4.73,6.3V9.45H6.93c.32-1.58.79-1.58,1.26-3.15ZM1.58,18.91v3.15H8.19c-.47-1.58-.95-1.58-1.26-3.15ZM6.3,12.6H0v3.15H6.3ZM13.71,0H1.58V3.15h8.67C11.34,1.58,12.45,1.58,13.71,0Zm9.93,0A14.12,14.12,0,0,0,9.45,14.18c0,4.41,2,7.88,5.36,11H1.58v3.15H23.63A14.18,14.18,0,0,0,23.63,0Zm0,25.21a11,11,0,1,1,11-11A11,11,0,0,1,23.63,25.21Z"/></g></g></svg>