<svg xmlns="http://www.w3.org/2000/svg" xmlns:xlink="http://www.w3.org/1999/xlink" viewBox="0 0 26.58 38.2"><defs><style>.cls-1,.cls-20{fill:none;stroke-miterlimit:10;stroke-width:2px;}.cls-1{stroke:url(#Безымянный_градиент_17);}.cls-2{fill:url(#Безымянный_градиент_5);}.cls-3{fill:url(#Безымянный_градиент_5-2);}.cls-4{fill:url(#Безымянный_градиент_5-3);}.cls-5{fill:url(#Безымянный_градиент_5-4);}.cls-6{fill:url(#Безымянный_градиент_5-5);}.cls-7{fill:url(#Безымянный_градиент_5-6);}.cls-8{fill:url(#Безымянный_градиент_5-7);}.cls-9{fill:url(#Безымянный_градиент_5-8);}.cls-10{fill:url(#Безымянный_градиент_5-9);}.cls-11{fill:url(#Безымянный_градиент_5-10);}.cls-12{fill:url(#Безымянный_градиент_5-11);}.cls-13{fill:url(#Безымянный_градиент_5-12);}.cls-14{fill:url(#Безымянный_градиент_5-13);}.cls-15{fill:url(#Безымянный_градиент_5-14);}.cls-16{fill:url(#Безымянный_градиент_5-15);}.cls-17{fill:url(#Безымянный_градиент_5-16);}.cls-18{fill:url(#Безымянный_градиент_5-17);}.cls-19{fill:url(#Безымянный_градиент_5-18);}.cls-20{stroke:url(#Безымянный_градиент_35);}</style><linearGradient id="Безымянный_градиент_17" y1="21.25" x2="26.58" y2="21.25" gradientUnits="userSpaceOnUse"><stop offset="0" stop-color="#0080ff"/><stop offset="1" stop-color="#1cc4ff"/></linearGradient><linearGradient id="Безымянный_градиент_5" x1="18.3" y1="2.72" x2="19.43" y2="4.67" gradientUnits="userSpaceOnUse"><stop offset="0" stop-color="#0098ff"/><stop offset="1" stop-color="#1cadff"/></linearGradient><linearGradient id="Безымянный_градиент_5-2" x1="16.51" y1="0.71" x2="17.64" y2="2.67" xlink:href="#Безымянный_градиент_5"/><linearGradient id="Безымянный_градиент_5-3" x1="9.48" y1="-0.08" x2="11.42" y2="3.28" xlink:href="#Безымянный_градиент_5"/><linearGradient id="Безымянный_градиент_5-4" x1="11.05" y1="3.76" x2="15.11" y2="10.8" xlink:href="#Безымянный_градиент_5"/><linearGradient id="Безымянный_градиент_5-5" x1="20.11" y1="4.74" x2="21.23" y2="6.69" xlink:href="#Безымянный_градиент_5"/><linearGradient id="Безымянный_градиент_5-6" x1="12.09" y1="6.97" x2="18.37" y2="17.84" xlink:href="#Безымянный_градиент_5"/><linearGradient id="Безымянный_градиент_5-7" x1="20.6" y1="11.25" x2="22.47" y2="14.48" xlink:href="#Безымянный_градиент_5"/><linearGradient id="Безымянный_градиент_5-8" x1="7.69" y1="1.93" x2="9.62" y2="5.28" xlink:href="#Безымянный_градиент_5"/><linearGradient id="Безымянный_градиент_5-9" x1="5.88" y1="3.95" x2="7.81" y2="7.3" xlink:href="#Безымянный_градиент_5"/><linearGradient id="Безымянный_градиент_5-10" x1="16.37" y1="18.2" x2="18.21" y2="21.38" xlink:href="#Безымянный_градиент_5"/><linearGradient id="Безымянный_градиент_5-11" x1="17.77" y1="15.9" x2="19.6" y2="19.07" xlink:href="#Безымянный_градиент_5"/><linearGradient id="Безымянный_градиент_5-12" x1="19.18" y1="13.58" x2="21.03" y2="16.78" xlink:href="#Безымянный_градиент_5"/><linearGradient id="Безымянный_градиент_5-13" x1="5.28" y1="11.99" x2="6.35" y2="13.85" xlink:href="#Безымянный_градиент_5"/><linearGradient id="Безымянный_градиент_5-14" x1="6.7" y1="14.3" x2="7.77" y2="16.16" xlink:href="#Безымянный_градиент_5"/><linearGradient id="Безымянный_градиент_5-15" x1="8.11" y1="16.6" x2="9.19" y2="18.46" xlink:href="#Безымянный_градиент_5"/><linearGradient id="Безымянный_градиент_5-16" x1="9.51" y1="18.9" x2="10.59" y2="20.76" xlink:href="#Безымянный_градиент_5"/><linearGradient id="Безымянный_градиент_5-17" x1="12.43" y1="7.57" x2="13.37" y2="9.21" xlink:href="#Безымянный_градиент_5"/><linearGradient id="Безымянный_градиент_5-18" x1="14.15" y1="7.17" x2="15.08" y2="8.78" xlink:href="#Безымянный_градиент_5"/><linearGradient id="Безымянный_градиент_35" x1="17.11" y1="33.37" x2="25.58" y2="33.37" gradientUnits="userSpaceOnUse"><stop offset="0" stop-color="#0af"/><stop offset="1" stop-color="#1cc4ff"/></linearGradient></defs><title>one paper</title><g id="Слой_2" data-name="Слой 2"><g id="Слой_1-2" data-name="Слой 1"><polyline class="cls-1" points="3.46 5.44 1 5.44 1 7.14 1 37.2 18.11 37.2 22.08 33.66 25.58 30.42 25.58 16.27 25.58 5.3 23.71 5.3"/><polygon class="cls-2" points="18.06 3.81 17.43 4.7 18.1 5.44 18.85 4.37 18.85 4.38 19.7 4.25 19.9 2.01 17.89 2.96 18.06 3.81"/><polygon class="cls-3" points="15.63 2.69 16.3 3.44 17.06 2.36 17.06 2.36 17.91 2.23 18.11 0 16.1 0.95 16.27 1.8 15.63 2.69"/><polygon class="cls-4" points="10.39 2.36 10.39 2.36 11.15 3.44 11.81 2.69 11.18 1.8 11.34 0.95 9.34 0 9.54 2.23 10.39 2.36"/><polygon class="cls-5" points="10.55 7.52 13.72 5.76 16.91 7.52 19.27 8.4 13.72 2.21 8.18 8.4 10.55 7.52"/><polygon class="cls-6" points="19.87 5.83 19.24 6.71 19.91 7.45 20.66 6.39 20.66 6.39 21.5 6.26 21.71 4.03 19.7 4.98 19.87 5.83"/><polygon class="cls-7" points="16.79 8.52 13.72 10.88 10.66 8.52 7.2 9.79 13.72 20.52 20.25 9.79 16.79 8.52"/><polygon class="cls-8" points="21.46 12.09 20.61 11.25 20.09 12.11 20.77 12.79 20.75 13.65 22.89 14.24 22.31 12.07 21.46 12.09 21.46 12.09"/><polygon class="cls-9" points="8.6 4.38 8.6 4.37 9.35 5.44 10.02 4.7 9.39 3.81 9.55 2.96 7.54 2.01 7.75 4.25 8.6 4.38"/><polygon class="cls-10" points="6.79 6.39 6.79 6.39 7.54 7.45 8.21 6.71 7.58 5.83 7.75 4.98 5.74 4.03 5.94 6.26 6.79 6.39"/><polygon class="cls-11" points="17.2 18.99 17.2 18.99 16.39 18.19 15.87 19.04 16.51 19.68 16.49 20.55 18.63 21.13 18.05 18.97 17.2 18.99"/><polygon class="cls-12" points="18.59 16.68 18.59 16.68 17.79 15.89 17.27 16.74 17.91 17.38 17.89 18.24 20.03 18.83 19.45 16.66 18.59 16.68"/><polygon class="cls-13" points="20.02 14.39 20.02 14.39 19.2 13.57 18.68 14.43 19.33 15.09 19.31 15.95 21.45 16.54 20.87 14.37 20.02 14.39"/><polygon class="cls-14" points="6.68 12.79 7.36 12.11 6.84 11.25 5.99 12.09 5.99 12.09 5.13 12.07 4.56 14.24 6.7 13.65 6.68 12.79"/><polygon class="cls-15" points="8.12 15.09 8.77 14.43 8.25 13.57 7.43 14.39 7.43 14.39 6.57 14.37 6 16.54 8.13 15.95 8.12 15.09"/><polygon class="cls-16" points="9.54 17.38 10.18 16.74 9.66 15.89 8.86 16.68 8.86 16.68 8 16.66 7.42 18.83 9.56 18.24 9.54 17.38"/><polygon class="cls-17" points="11.58 19.04 11.05 18.19 10.25 18.99 10.25 18.99 9.39 18.97 8.82 21.13 10.96 20.55 10.94 19.68 11.58 19.04"/><polygon class="cls-18" points="13.24 9.29 11.62 8.04 13.24 7.13 13.24 9.29"/><polygon class="cls-19" points="14.2 7.13 15.82 8.04 14.2 9.29 14.2 7.13"/><polyline class="cls-20" points="18.11 37.42 18.11 30.33 25.58 30.33"/></g></g></svg>