<svg xmlns="http://www.w3.org/2000/svg" xmlns:xlink="http://www.w3.org/1999/xlink" viewBox="0 0 37.05 38.39"><defs><style>.cls-1{fill:url(#Безымянный_градиент_5);}.cls-2{fill:url(#Безымянный_градиент_5-2);}.cls-3{fill:url(#Безымянный_градиент_5-3);}.cls-4{fill:url(#Безымянный_градиент_5-4);}.cls-5{fill:url(#Безымянный_градиент_5-5);}.cls-6{fill:url(#Безымянный_градиент_5-6);}.cls-7{fill:url(#Безымянный_градиент_5-7);}.cls-8{fill:url(#Безымянный_градиент_5-8);}.cls-9{fill:url(#Безымянный_градиент_5-9);}.cls-10{fill:url(#Безымянный_градиент_5-10);}.cls-11{fill:url(#Безымянный_градиент_5-11);}.cls-12{fill:url(#Безымянный_градиент_5-12);}.cls-13{fill:url(#Безымянный_градиент_5-13);}.cls-14{fill:url(#Безымянный_градиент_5-14);}.cls-15{fill:url(#Безымянный_градиент_5-15);}.cls-16{fill:url(#Безымянный_градиент_5-16);}.cls-17{fill:url(#Безымянный_градиент_5-17);}.cls-18{fill:url(#Безымянный_градиент_5-18);}.cls-19,.cls-20,.cls-21,.cls-22,.cls-23{fill:none;stroke-miterlimit:10;stroke-width:1.74px;}.cls-19{stroke:url(#Безымянный_градиент_12);}.cls-20{stroke:url(#Безымянный_градиент_12-2);}.cls-21{stroke:url(#Безымянный_градиент_12-3);}.cls-22{stroke:url(#Безымянный_градиент_12-4);}.cls-23{stroke:url(#Безымянный_градиент_12-5);}.cls-24{fill:#1bc1ff;}.cls-25{fill:url(#Безымянный_градиент_12-6);}</style><linearGradient id="Безымянный_градиент_5" x1="17.3" y1="3.31" x2="19.5" y2="3.31" gradientUnits="userSpaceOnUse"><stop offset="0" stop-color="#0098ff"/><stop offset="1" stop-color="#1cadff"/></linearGradient><linearGradient id="Безымянный_градиент_5-2" x1="15.71" y1="1.53" x2="17.91" y2="1.53" xlink:href="#Безымянный_градиент_5"/><linearGradient id="Безымянный_градиент_5-3" x1="10.11" y1="1.53" x2="12.31" y2="1.53" xlink:href="#Безымянный_градиент_5"/><linearGradient id="Безымянный_градиент_5-4" x1="9.08" y1="4.71" x2="18.94" y2="4.71" xlink:href="#Безымянный_градиент_5"/><linearGradient id="Безымянный_градиент_5-5" x1="18.91" y1="5.1" x2="21.1" y2="5.1" xlink:href="#Безымянный_градиент_5"/><linearGradient id="Безымянный_градиент_5-6" x1="8.21" y1="12.9" x2="19.8" y2="12.9" xlink:href="#Безымянный_градиент_5"/><linearGradient id="Безымянный_градиент_5-7" x1="19.66" y1="11.32" x2="22.15" y2="11.32" xlink:href="#Безымянный_градиент_5"/><linearGradient id="Безымянный_градиент_5-8" x1="8.52" y1="3.31" x2="10.71" y2="3.31" xlink:href="#Безымянный_градиент_5"/><linearGradient id="Безымянный_градиент_5-9" x1="6.91" y1="5.1" x2="9.11" y2="5.1" xlink:href="#Безымянный_градиент_5"/><linearGradient id="Безымянный_градиент_5-10" x1="15.92" y1="17.47" x2="18.37" y2="17.47" xlink:href="#Безымянный_градиент_5"/><linearGradient id="Безымянный_градиент_5-11" x1="17.16" y1="15.42" x2="19.61" y2="15.42" xlink:href="#Безымянный_градиент_5"/><linearGradient id="Безымянный_градиент_5-12" x1="18.41" y1="13.38" x2="20.87" y2="13.38" xlink:href="#Безымянный_градиент_5"/><linearGradient id="Безымянный_градиент_5-13" x1="5.86" y1="11.32" x2="8.35" y2="11.32" xlink:href="#Безымянный_градиент_5"/><linearGradient id="Безымянный_градиент_5-14" x1="7.14" y1="13.38" x2="9.61" y2="13.38" xlink:href="#Безымянный_градиент_5"/><linearGradient id="Безымянный_градиент_5-15" x1="8.41" y1="15.42" x2="10.86" y2="15.42" xlink:href="#Безымянный_градиент_5"/><linearGradient id="Безымянный_градиент_5-16" x1="9.65" y1="17.47" x2="12.1" y2="17.47" xlink:href="#Безымянный_градиент_5"/><linearGradient id="Безымянный_градиент_5-17" x1="12.14" y1="7.3" x2="13.58" y2="7.3" xlink:href="#Безымянный_градиент_5"/><linearGradient id="Безымянный_градиент_5-18" x1="14.43" y1="7.3" x2="15.87" y2="7.3" xlink:href="#Безымянный_градиент_5"/><linearGradient id="Безымянный_градиент_12" x1="23.66" y1="10.07" x2="27.12" y2="10.07" gradientUnits="userSpaceOnUse"><stop offset="0" stop-color="#0080ff"/><stop offset="1" stop-color="#1cc4ff"/></linearGradient><linearGradient id="Безымянный_градиент_12-2" x1="0" y1="21.31" x2="27.12" y2="21.31" xlink:href="#Безымянный_градиент_12"/><linearGradient id="Безымянный_градиент_12-3" x1="12.36" y1="33.89" x2="19.47" y2="33.89" xlink:href="#Безымянный_градиент_12"/><linearGradient id="Безымянный_градиент_12-4" x1="4.07" y1="30.55" x2="15.34" y2="30.55" xlink:href="#Безымянный_градиент_12"/><linearGradient id="Безымянный_градиент_12-5" x1="4.07" y1="27.07" x2="15.34" y2="27.07" xlink:href="#Безымянный_градиент_12"/><linearGradient id="Безымянный_градиент_12-6" x1="19.12" y1="21.69" x2="35.17" y2="21.69" xlink:href="#Безымянный_градиент_12"/></defs><title>Whitepaper</title><g id="Слой_2" data-name="Слой 2"><g id="Слой_1-2" data-name="Слой 1"><polygon class="cls-1" points="17.86 3.38 17.3 4.17 17.89 4.83 18.56 3.89 18.57 3.89 19.32 3.77 19.5 1.79 17.71 2.63 17.86 3.38"/><polygon class="cls-2" points="15.71 2.39 16.3 3.05 16.97 2.1 16.97 2.1 17.73 1.99 17.91 0 16.12 0.84 16.27 1.6 15.71 2.39"/><polygon class="cls-3" points="11.04 2.1 11.04 2.1 11.72 3.05 12.31 2.39 11.75 1.6 11.89 0.84 10.11 0 10.29 1.99 11.04 2.1"/><polygon class="cls-4" points="11.19 6.68 14.01 5.12 16.84 6.68 18.94 7.46 14.01 1.96 9.08 7.46 11.19 6.68"/><polygon class="cls-5" points="19.46 5.18 18.91 5.96 19.5 6.62 20.17 5.68 20.17 5.68 20.92 5.57 21.1 3.58 19.32 4.42 19.46 5.18"/><polygon class="cls-6" points="16.73 7.57 14.01 9.67 11.29 7.57 8.21 8.7 14.01 18.23 19.8 8.7 16.73 7.57"/><polygon class="cls-7" points="20.88 10.74 20.13 9.99 19.66 10.76 20.27 11.36 20.25 12.13 22.15 12.65 21.64 10.72 20.88 10.74 20.88 10.74"/><polygon class="cls-8" points="9.45 3.89 9.45 3.89 10.12 4.83 10.71 4.17 10.15 3.38 10.3 2.63 8.52 1.79 8.7 3.77 9.45 3.89"/><polygon class="cls-9" points="7.85 5.68 7.85 5.68 8.52 6.62 9.11 5.96 8.55 5.18 8.7 4.42 6.91 3.58 7.09 5.57 7.85 5.68"/><polygon class="cls-10" points="17.09 16.87 17.09 16.87 16.38 16.16 15.92 16.92 16.48 17.49 16.47 18.26 18.37 18.78 17.85 16.85 17.09 16.87"/><polygon class="cls-11" points="18.33 14.82 18.33 14.82 17.62 14.12 17.16 14.88 17.73 15.44 17.71 16.21 19.61 16.73 19.09 14.81 18.33 14.82"/><polygon class="cls-12" points="19.6 12.79 19.6 12.79 18.87 12.06 18.41 12.82 18.99 13.4 18.97 14.17 20.87 14.69 20.36 12.77 19.6 12.79"/><polygon class="cls-13" points="7.75 11.36 8.35 10.76 7.89 9.99 7.14 10.74 7.14 10.74 6.38 10.72 5.86 12.65 7.76 12.13 7.75 11.36"/><polygon class="cls-14" points="9.02 13.4 9.61 12.82 9.14 12.06 8.42 12.79 8.41 12.79 7.66 12.77 7.14 14.69 9.04 14.17 9.02 13.4"/><polygon class="cls-15" points="10.29 15.44 10.86 14.88 10.39 14.12 9.68 14.82 9.68 14.82 8.92 14.81 8.41 16.73 10.31 16.21 10.29 15.44"/><polygon class="cls-16" points="12.1 16.92 11.64 16.16 10.92 16.87 10.92 16.87 10.16 16.85 9.65 18.78 11.55 18.26 11.53 17.49 12.1 16.92"/><polygon class="cls-17" points="13.58 8.26 12.14 7.14 13.58 6.34 13.58 8.26"/><polygon class="cls-18" points="14.43 6.34 15.88 7.14 14.43 8.26 14.43 6.34"/><polyline class="cls-19" points="26.25 15.91 26.25 5.1 23.66 5.1"/><polyline class="cls-20" points="3.75 5.1 0.87 5.1 0.87 6.49 0.87 37.52 26.25 37.52 26.25 29.56"/><line class="cls-21" x1="12.36" y1="33.89" x2="19.47" y2="33.89"/><line class="cls-22" x1="4.07" y1="30.55" x2="15.34" y2="30.55"/><line class="cls-23" x1="4.07" y1="27.07" x2="15.34" y2="27.07"/><polygon class="cls-24" points="35.93 16.52 32.18 12.77 33.36 11.59 37.05 15.27 35.93 16.52"/><polygon class="cls-25" points="19.12 29.85 24.57 27.83 35.17 17.23 31.48 13.54 20.79 24.22 19.12 29.85"/></g></g></svg>